<?xml version="1.0" encoding="utf-8"?>
<!-- Generator: Adobe Illustrator 19.0.1, SVG Export Plug-In . SVG Version: 6.00 Build 0)  -->
<svg version="1.1" id="Layer_1" xmlns="http://www.w3.org/2000/svg" xmlns:xlink="http://www.w3.org/1999/xlink" x="0px" y="0px"
	 viewBox="0 0 32 32" width="32" height="32" style="enable-background:new 0 0 32 32;" xml:space="preserve">
<style type="text/css">
	.st0{fill:#FFFFFF;}
</style>
<g>
	<path class="st0" d="M27.348,25.861C15.01,31.733,7.353,26.821,2.452,23.837c-0.303-0.188-0.819,0.044-0.372,0.558
		c1.633,1.98,6.984,6.752,13.97,6.752c6.99,0,11.148-3.814,11.669-4.479C28.235,26.007,27.87,25.644,27.348,25.861L27.348,25.861z
		 M30.813,23.948c-0.331-0.431-2.015-0.512-3.074-0.382c-1.061,0.126-2.654,0.775-2.515,1.164c0.071,0.146,0.216,0.08,0.945,0.015
		c0.731-0.073,2.778-0.331,3.205,0.226c0.429,0.562-0.653,3.237-0.851,3.668c-0.191,0.431,0.073,0.543,0.431,0.255
		c0.354-0.287,0.994-1.031,1.423-2.084C30.805,25.753,31.065,24.276,30.813,23.948L30.813,23.948z"/>
	<path class="st0" d="M27.348,25.861C15.01,31.733,7.353,26.821,2.452,23.837c-0.303-0.188-0.819,0.044-0.372,0.558
		c1.633,1.98,6.984,6.752,13.97,6.752c6.99,0,11.148-3.814,11.669-4.479C28.235,26.007,27.87,25.644,27.348,25.861L27.348,25.861z
		 M30.813,23.948c-0.331-0.431-2.015-0.512-3.074-0.382c-1.061,0.126-2.654,0.775-2.515,1.164c0.071,0.146,0.216,0.08,0.945,0.015
		c0.731-0.073,2.778-0.331,3.205,0.226c0.429,0.562-0.653,3.237-0.851,3.668c-0.191,0.431,0.073,0.543,0.431,0.255
		c0.354-0.287,0.994-1.031,1.423-2.084C30.805,25.753,31.065,24.276,30.813,23.948L30.813,23.948z"/>
	<path class="st0" d="M25.563,19.882c-0.723-1.001-1.491-1.813-1.491-3.665v-6.163c0-2.609,0.184-5.006-1.741-6.802
		c-1.519-1.457-4.033-1.969-5.957-1.969c-3.76,0-7.959,1.402-8.843,6.052C7.442,7.829,7.798,8.091,8.121,8.163l3.838,0.412
		c0.356-0.017,0.617-0.367,0.684-0.723c0.328-1.602,1.674-2.375,3.181-2.375c0.812,0,1.735,0.3,2.219,1.029
		c0.551,0.812,0.478,1.924,0.478,2.864v0.512c-2.292,0.261-5.29,0.428-7.437,1.374c-2.475,1.068-4.216,3.254-4.216,6.463
		c0,4.11,2.592,6.163,5.918,6.163c2.814,0,4.35-0.662,6.519-2.876c0.723,1.04,0.957,1.546,2.269,2.636
		c0.295,0.156,0.673,0.139,0.934-0.094l0,0h0c0,0,0,0,0,0l0.011,0.011c0.79-0.701,2.225-1.952,3.031-2.625
		C25.875,20.667,25.819,20.238,25.563,19.882z M18.521,14.682c0,0.046-0.001,0.091-0.001,0.137c-0.001,0.045-0.001,0.09-0.002,0.135
		c0,0.023-0.001,0.046-0.002,0.069c-0.001,0.044-0.002,0.087-0.004,0.13c-0.001,0.045-0.003,0.09-0.005,0.135
		c-0.002,0.044-0.004,0.088-0.006,0.132c-0.001,0.022-0.002,0.044-0.004,0.066c-0.003,0.042-0.005,0.085-0.008,0.127
		c-0.002,0.023-0.003,0.046-0.005,0.069c-0.003,0.043-0.007,0.087-0.011,0.13c-0.006,0.065-0.013,0.129-0.021,0.194
		c-0.005,0.043-0.011,0.086-0.016,0.128c-0.009,0.064-0.018,0.128-0.029,0.192c-0.011,0.064-0.022,0.127-0.035,0.191
		c-0.013,0.064-0.026,0.127-0.041,0.19c-0.02,0.084-0.042,0.169-0.066,0.253c-0.024,0.084-0.051,0.168-0.079,0.253
		c-0.101,0.295-0.232,0.59-0.403,0.889c-0.039,0.07-0.08,0.137-0.122,0.204c-0.011,0.017-0.021,0.033-0.032,0.049
		c-0.043,0.065-0.087,0.129-0.132,0.19c-0.091,0.123-0.187,0.239-0.288,0.348c-0.025,0.027-0.051,0.054-0.076,0.08
		c-0.039,0.039-0.078,0.077-0.118,0.114c-0.067,0.062-0.135,0.12-0.205,0.175c-0.014,0.011-0.028,0.022-0.042,0.033
		c-0.028,0.022-0.057,0.043-0.085,0.063c-0.043,0.031-0.087,0.06-0.131,0.088c-0.059,0.038-0.118,0.073-0.179,0.106
		c-0.03,0.017-0.061,0.033-0.092,0.048c-0.031,0.015-0.062,0.03-0.093,0.045c-0.031,0.014-0.062,0.028-0.094,0.041
		c-0.032,0.013-0.063,0.026-0.095,0.038c-0.048,0.018-0.096,0.035-0.145,0.05c-0.032,0.01-0.065,0.02-0.098,0.029
		c-0.23,0.063-0.467,0.096-0.711,0.096c-0.047,0-0.094-0.001-0.14-0.003c-0.046-0.002-0.092-0.006-0.137-0.01
		c-0.045-0.004-0.089-0.01-0.133-0.017c-0.066-0.01-0.13-0.022-0.192-0.037c-0.042-0.01-0.083-0.021-0.123-0.033
		c-0.101-0.03-0.198-0.066-0.291-0.108c-0.019-0.008-0.037-0.017-0.055-0.026c-0.036-0.018-0.072-0.037-0.107-0.057
		c-0.07-0.04-0.137-0.083-0.202-0.13c-0.048-0.035-0.095-0.073-0.14-0.112c-0.03-0.026-0.059-0.053-0.088-0.081
		c-0.043-0.042-0.084-0.086-0.124-0.132c-0.04-0.046-0.078-0.094-0.114-0.143c-0.048-0.066-0.094-0.136-0.136-0.208
		c-0.053-0.091-0.101-0.186-0.144-0.286c-0.043-0.1-0.082-0.205-0.115-0.314c-0.02-0.065-0.038-0.132-0.055-0.201
		c-0.011-0.046-0.021-0.092-0.03-0.139s-0.018-0.094-0.025-0.143c-0.008-0.048-0.014-0.097-0.02-0.146
		c-0.021-0.173-0.031-0.353-0.031-0.54c0-0.211,0.012-0.411,0.035-0.6c0.006-0.047,0.012-0.094,0.019-0.14
		c0.021-0.138,0.049-0.271,0.082-0.398c0.017-0.064,0.035-0.126,0.054-0.187c0.019-0.061,0.04-0.12,0.062-0.179
		c0.015-0.039,0.03-0.077,0.046-0.115c0.008-0.019,0.016-0.038,0.024-0.056c0.017-0.037,0.034-0.074,0.051-0.11
		c0.027-0.054,0.054-0.107,0.083-0.158c0.019-0.034,0.039-0.068,0.06-0.101c0.02-0.033,0.042-0.066,0.063-0.098
		c0.022-0.032,0.044-0.064,0.066-0.095c0.016-0.022,0.033-0.044,0.05-0.066c0.018-0.024,0.037-0.047,0.056-0.07
		c0.012-0.015,0.024-0.029,0.037-0.044c0.023-0.028,0.047-0.055,0.072-0.081c0.002-0.002,0.004-0.005,0.006-0.007
		c0.025-0.027,0.05-0.054,0.076-0.08c0.013-0.013,0.027-0.027,0.04-0.04c0.02-0.02,0.04-0.039,0.061-0.058
		c0.014-0.013,0.029-0.027,0.044-0.04c0.049-0.044,0.099-0.086,0.151-0.127c0.03-0.024,0.06-0.047,0.09-0.07
		c0.061-0.045,0.124-0.089,0.188-0.131c0.032-0.021,0.065-0.041,0.098-0.061c0.049-0.03,0.1-0.059,0.151-0.087
		c0.034-0.019,0.068-0.037,0.103-0.055c0.035-0.018,0.07-0.035,0.105-0.053c0.071-0.034,0.143-0.067,0.217-0.098
		c0.037-0.016,0.074-0.031,0.111-0.046c0.019-0.007,0.037-0.015,0.056-0.022c0.038-0.014,0.076-0.028,0.114-0.042
		c0.057-0.021,0.115-0.04,0.174-0.059c0.02-0.006,0.039-0.012,0.059-0.019c0.118-0.037,0.238-0.07,0.36-0.101
		c0.061-0.015,0.123-0.03,0.185-0.044c0.103-0.023,0.208-0.044,0.314-0.064c0.148-0.027,0.298-0.051,0.45-0.071
		c0.065-0.009,0.13-0.017,0.196-0.024c0.153-0.018,0.308-0.032,0.463-0.044c0.4-0.03,0.805-0.042,1.207-0.042l0,0v0.857
		c0,0.144,0,0.287,0,0.427C18.522,14.452,18.522,14.568,18.521,14.682z"/>
</g>
</svg>
