<svg xmlns="http://www.w3.org/2000/svg" width="57" height="57" viewBox="0 0 57 57" fill="none">
<path d="M53.8333 0H3.16667C2.32681 0 1.52136 0.33363 0.927495 0.927495C0.33363 1.52136 0 2.32681 0 3.16667L0 53.8333C0 54.6732 0.33363 55.4786 0.927495 56.0725C1.52136 56.6664 2.32681 57 3.16667 57H30.4475V34.96H23.0454V26.3308H30.4475V19.9975C30.4475 12.635 34.9442 8.62125 41.5308 8.62125C43.7467 8.61477 45.9614 8.72841 48.165 8.96167V16.625H43.6208C40.0504 16.625 39.3538 18.3271 39.3538 20.8208V26.315H47.8958L46.7875 34.9442H39.3538V57H53.8333C54.6732 57 55.4786 56.6664 56.0725 56.0725C56.6664 55.4786 57 54.6732 57 53.8333V3.16667C57 2.32681 56.6664 1.52136 56.0725 0.927495C55.4786 0.33363 54.6732 0 53.8333 0V0Z" fill="white"/>
<path d="M39.3538 57V34.96H46.7875L47.8958 26.3308H39.3538V20.8367C39.3538 18.3429 40.0504 16.6408 43.6208 16.6408H48.1492V8.94583C45.9456 8.71258 43.7309 8.59894 41.515 8.60542C34.9442 8.60542 30.4317 12.6192 30.4317 19.9817V26.315H23.0454V34.9442H30.4475V57H39.3538Z" fill="#4267B2"/>
</svg>