<?xml version="1.0" encoding="utf-8"?>
<!-- Generator: Adobe Illustrator 19.0.1, SVG Export Plug-In . SVG Version: 6.00 Build 0)  -->
<svg version="1.1" id="Layer_1" xmlns="http://www.w3.org/2000/svg" xmlns:xlink="http://www.w3.org/1999/xlink" x="0px" y="0px"
	 width="815" height="815" viewBox="0 0 815 815" style="enable-background:new 0 0 815 815;" xml:space="preserve">
<style type="text/css">
	.st0{fill-rule:evenodd;clip-rule:evenodd;fill:#FFFFFF;}
	.st1{fill:#3E3935;}
	.st2{fill-rule:evenodd;clip-rule:evenodd;fill:#3E3935;}
</style>
<path class="st0" d="M606,133.9H208.8c-32.2,0-44.1,11.9-44.1,44.1v388.7c0,3.6,0.1,7,0.5,10.2c0.7,7,0.9,13.8,7.4,21.6
	c0.6,0.8,7.3,5.7,7.3,5.7c3.6,1.8,6,3.1,10.1,4.7l195.6,81.9c10.2,4.7,14.4,6.5,21.8,6.3v0c0,0,0,0,0,0c0,0,0,0,0,0v0
	c7.4,0.1,11.6-1.7,21.8-6.3l195.6-81.9c4.1-1.6,6.5-2.9,10.1-4.7c0,0,6.7-5,7.3-5.7c6.5-7.8,6.7-14.6,7.4-21.6
	c0.3-3.1,0.5-6.5,0.5-10.2V178C650.1,145.8,638.2,133.9,606,133.9z"/>
<g>
	<polygon class="st1" points="269.4,329.7 308,329.7 308,299.7 269.4,299.7 269.4,238.7 309.6,238.7 309.6,208.7 236.5,208.7 
		236.5,424.7 310.2,424.7 310.2,394.8 269.4,394.8 	"/>
	<path class="st1" d="M546.4,336.1v48.7c0,8.6-4,12.6-12.3,12.6H528c-8.6,0-12.6-4-12.6-12.6V248.5c0-8.6,4-12.6,12.6-12.6h5.5
		c8.3,0,12.3,4,12.3,12.6v42.3H578v-44.1c0-26.8-12.9-39.8-39.6-39.8h-16c-26.7,0-39.9,13.3-39.9,40.1v139.4
		c0,26.8,13.2,40.1,39.9,40.1h16.3c26.7,0,39.9-13.3,39.9-40.1v-50.3H546.4z"/>
	<rect x="432.4" y="208.7" class="st1" width="32.9" height="216"/>
	<path class="st1" d="M377.6,208.7H326v216h32.8v-78.4h18.7c26.7,0,39.9-13.3,39.9-40.1v-57.4C417.5,222,404.3,208.7,377.6,208.7z
		 M384.7,304.7c0,8.6-4,12.7-12.3,12.7h-13.5v-79.6h13.5c8.3,0,12.3,4,12.3,12.6V304.7z"/>
</g>
<polygon class="st2" points="314,619.9 502.1,619.9 406.1,651.6 314,619.9 "/>
<g>
	<path class="st1" d="M270.4,543.9c-5.1,0-9.8-0.8-14.1-2.5c-4.3-1.7-8.1-4-11.2-7s-5.7-6.6-7.5-10.7c-1.8-4.1-2.7-8.7-2.7-13.6
		v-0.2c0-4.8,0.9-9.3,2.7-13.4s4.2-7.7,7.3-10.8c3.1-3.1,6.8-5.5,11.1-7.2c4.3-1.7,9-2.6,14-2.6c5.8,0,10.8,0.8,15,2.5
		c4.2,1.7,8,4,11.5,7l-10.6,12.8c-2.4-2-4.8-3.5-7.2-4.6c-2.5-1.1-5.3-1.6-8.5-1.6c-2.4,0-4.6,0.5-6.6,1.4s-3.8,2.2-5.3,3.8
		c-1.5,1.6-2.7,3.5-3.5,5.7c-0.9,2.2-1.3,4.5-1.3,7v0.2c0,2.6,0.4,5,1.3,7.3c0.9,2.2,2.1,4.2,3.7,5.8c1.6,1.6,3.4,2.8,5.6,3.7
		c2.1,0.9,4.5,1.4,7.1,1.4c4.2,0,7.7-0.9,10.4-2.7v-7.9h-12.9v-13.3h30v29.5c-3.5,2.9-7.6,5.3-12.3,7.2
		C281.7,543,276.4,543.9,270.4,543.9z"/>
	<path class="st1" d="M332.3,476.6h17.4l27.8,65.9h-19.4l-4.8-11.7h-25.2l-4.7,11.7h-19L332.3,476.6z M348.1,516.8l-7.3-18.6
		l-7.4,18.6H348.1z"/>
	<path class="st1" d="M383.8,477.1h19.1l15.6,25.3l15.6-25.3h19.1v65.5h-18V505l-16.7,25.6h-0.4l-16.6-25.4v37.4h-17.7V477.1z"/>
	<path class="st1" d="M465.2,477.1h52.5v15.4h-34.6v9.9h31.3v14.3h-31.3v10.4h35v15.4h-52.9V477.1z"/>
	<path class="st1" d="M553.5,543.8c-5.8,0-11.4-0.9-16.6-2.7c-5.2-1.8-9.9-4.5-13.9-8.1l10.1-12.1c6.5,5.2,13.6,7.9,21.2,7.9
		c2.4,0,4.3-0.4,5.5-1.2c1.3-0.8,1.9-1.9,1.9-3.3V524c0-0.7-0.2-1.3-0.5-1.8c-0.3-0.5-0.9-1-1.7-1.5c-0.8-0.5-2-1-3.4-1.4
		c-1.4-0.5-3.2-0.9-5.5-1.4c-3.5-0.8-6.7-1.7-9.7-2.7c-3-1-5.6-2.2-7.8-3.7c-2.2-1.5-3.9-3.4-5.2-5.7c-1.3-2.3-1.9-5.1-1.9-8.5V497
		c0-3.1,0.6-5.9,1.7-8.4c1.1-2.6,2.8-4.8,5-6.6c2.2-1.9,4.9-3.3,8-4.3c3.1-1,6.6-1.5,10.5-1.5c5.6,0,10.6,0.7,15,2.2
		c4.4,1.5,8.3,3.6,11.9,6.5l-9,12.8c-3-2.1-6-3.7-9.2-4.8c-3.1-1.1-6.2-1.6-9.1-1.6c-2.2,0-3.8,0.4-4.9,1.2c-1.1,0.8-1.6,1.8-1.6,3
		v0.2c0,0.7,0.2,1.4,0.5,2c0.3,0.6,0.9,1.1,1.8,1.5c0.8,0.5,2,0.9,3.4,1.4c1.5,0.5,3.3,1,5.5,1.4c3.7,0.8,7.1,1.8,10.1,2.9
		c3,1.1,5.6,2.4,7.7,4c2.1,1.6,3.7,3.4,4.8,5.7c1.1,2.2,1.7,4.8,1.7,7.9v0.2c0,3.4-0.6,6.4-1.9,9c-1.3,2.6-3.1,4.8-5.4,6.7
		c-2.3,1.8-5.1,3.2-8.3,4.2C561.1,543.3,557.5,543.8,553.5,543.8z"/>
</g>
</svg>
