<svg xmlns="http://www.w3.org/2000/svg" width="32" height="32" viewBox="0 0 32 32">
  <defs>
    <style>
      .cls-1 {
        fill: #989898;
        fill-rule: evenodd;
      }
    </style>
  </defs>
  <path class="cls-1" d="M339.971,406A16.015,16.015,0,0,0,324,420.716l8.59,3.546a4.513,4.513,0,0,1,2.553-.788c0.085,0,.169,0,0.253.007l3.82-5.528v-0.078a6.044,6.044,0,1,1,6.044,6.035l-0.137,0-5.448,3.881c0,0.071,0,.143,0,0.215a4.538,4.538,0,0,1-8.985.892l-6.143-2.536A16.022,16.022,0,1,0,339.971,406Zm-5.928,24.28-1.969-.812a3.4,3.4,0,1,0,1.863-4.648l2.034,0.84A2.5,2.5,0,1,1,334.043,430.278Zm15.243-12.4a4.028,4.028,0,1,0-4.027,4.021A4.028,4.028,0,0,0,349.286,417.875Zm-7.046-.007a3.026,3.026,0,1,1,3.026,3.021A3.023,3.023,0,0,1,342.24,417.868Z" transform="translate(-324 -406)"/>
</svg>
